<svg width="2130" height="1200" viewBox="0 0 2130 1200" fill="none" xmlns="http://www.w3.org/2000/svg">
<g filter="url(#filter0_d_15_2)">
<path d="M1951.35 727.477C1932.95 727.477 1917.06 723.652 1903.67 716.004C1890.37 708.276 1880.13 697.362 1872.96 683.26C1865.79 669.079 1862.2 652.389 1862.2 633.188C1862.2 614.307 1865.79 597.736 1872.96 583.475C1880.21 569.134 1890.33 557.981 1903.31 550.014C1916.3 541.967 1931.56 537.944 1949.08 537.944C1960.4 537.944 1971.07 539.776 1981.11 543.441C1991.23 547.026 2000.15 552.603 2007.88 560.172C2015.69 567.74 2021.82 577.38 2026.28 589.092C2030.74 600.723 2032.97 614.586 2032.97 630.679V643.944H1882.52V614.785H1991.51C1991.43 606.499 1989.63 599.13 1986.13 592.677C1982.62 586.144 1977.72 581.005 1971.43 577.261C1965.22 573.516 1957.97 571.644 1949.68 571.644C1940.84 571.644 1933.07 573.795 1926.38 578.097C1919.69 582.32 1914.47 587.897 1910.72 594.828C1907.06 601.679 1905.19 609.208 1905.11 617.414V642.868C1905.11 653.544 1907.06 662.706 1910.96 670.354C1914.87 677.922 1920.32 683.738 1927.33 687.801C1934.34 691.785 1942.55 693.777 1951.95 693.777C1958.25 693.777 1963.94 692.9 1969.04 691.148C1974.14 689.315 1978.56 686.646 1982.31 683.141C1986.05 679.635 1988.88 675.293 1990.79 670.115L2031.18 674.656C2028.63 685.332 2023.77 694.653 2016.6 702.62C2009.51 710.507 2000.43 716.642 1989.36 721.023C1978.28 725.326 1965.61 727.477 1951.35 727.477Z" fill="#121315"/>
<path d="M1757.69 723.891V540.334H1799.63V570.927H1801.54C1804.89 560.331 1810.63 552.165 1818.75 546.428C1826.96 540.613 1836.32 537.705 1846.83 537.705C1849.22 537.705 1851.89 537.824 1854.84 538.063C1857.87 538.223 1860.38 538.501 1862.37 538.9V578.694C1860.54 578.057 1857.63 577.499 1853.65 577.021C1849.74 576.464 1845.96 576.185 1842.29 576.185C1834.41 576.185 1827.32 577.898 1821.02 581.323C1814.81 584.67 1809.91 589.33 1806.32 595.305C1802.74 601.281 1800.95 608.172 1800.95 615.979V723.891H1757.69Z" fill="#121315"/>
<path d="M1630.73 727.596C1619.1 727.596 1608.62 725.525 1599.3 721.382C1590.06 717.159 1582.73 710.945 1577.31 702.739C1571.97 694.533 1569.3 684.415 1569.3 672.385C1569.3 662.029 1571.22 653.464 1575.04 646.692C1578.87 639.92 1584.08 634.503 1590.7 630.44C1597.31 626.377 1604.76 623.309 1613.04 621.238C1621.41 619.087 1630.05 617.533 1638.98 616.577C1649.73 615.462 1658.45 614.466 1665.15 613.59C1671.84 612.634 1676.7 611.2 1679.73 609.288C1682.83 607.296 1684.39 604.229 1684.39 600.086V599.369C1684.39 590.366 1681.72 583.395 1676.38 578.456C1671.04 573.516 1663.35 571.047 1653.32 571.047C1642.72 571.047 1634.31 573.357 1628.1 577.978C1621.97 582.599 1617.82 588.056 1615.67 594.35L1575.28 588.614C1578.47 577.46 1583.73 568.139 1591.05 560.65C1598.38 553.081 1607.35 547.425 1617.94 543.68C1628.54 539.856 1640.25 537.944 1653.08 537.944C1661.92 537.944 1670.72 538.98 1679.49 541.051C1688.25 543.123 1696.26 546.548 1703.51 551.328C1710.76 556.029 1716.57 562.442 1720.95 570.569C1725.42 578.695 1727.65 588.853 1727.65 601.042V723.891H1686.06V698.676H1684.63C1682 703.775 1678.29 708.555 1673.51 713.017C1668.81 717.398 1662.88 720.944 1655.71 723.652C1648.62 726.282 1640.29 727.596 1630.73 727.596ZM1641.96 695.808C1650.65 695.808 1658.18 694.095 1664.55 690.669C1670.92 687.164 1675.82 682.543 1679.25 676.807C1682.75 671.071 1684.51 664.817 1684.51 658.045V636.415C1683.15 637.53 1680.84 638.566 1677.58 639.522C1674.39 640.478 1670.8 641.315 1666.82 642.032C1662.84 642.749 1658.89 643.386 1654.99 643.944C1651.09 644.501 1647.7 644.979 1644.83 645.378C1638.38 646.254 1632.6 647.688 1627.5 649.68C1622.4 651.672 1618.38 654.46 1615.43 658.045C1612.49 661.55 1611.01 666.092 1611.01 671.668C1611.01 679.635 1613.92 685.65 1619.74 689.713C1625.55 693.777 1632.96 695.808 1641.96 695.808Z" fill="#121315"/>
<path d="M1546.88 479.148V723.891H1503.62V479.148H1546.88Z" fill="#121315"/>
<path d="M1483.21 540.334V573.795H1374.7V540.334H1483.21ZM1401.82 723.891V523.006C1401.82 510.657 1404.37 500.38 1409.47 492.174C1414.65 483.968 1421.58 477.834 1430.27 473.77C1438.95 469.707 1448.59 467.676 1459.19 467.676C1466.67 467.676 1473.33 468.273 1479.14 469.468C1484.96 470.663 1489.26 471.739 1492.05 472.695L1483.45 506.156C1481.61 505.598 1479.3 505.041 1476.51 504.483C1473.73 503.846 1470.62 503.527 1467.19 503.527C1459.15 503.527 1453.45 505.479 1450.1 509.382C1446.84 513.207 1445.2 518.704 1445.2 525.874V723.891H1401.82Z" fill="#121315"/>
<path d="M1260.41 723.891V540.334H1302.35V570.927H1304.27C1307.61 560.331 1313.35 552.165 1321.48 546.428C1329.68 540.613 1339.04 537.705 1349.56 537.705C1351.95 537.705 1354.62 537.824 1357.57 538.063C1360.59 538.223 1363.1 538.501 1365.09 538.9V578.694C1363.26 578.057 1360.35 577.499 1356.37 577.021C1352.47 576.464 1348.68 576.185 1345.02 576.185C1337.13 576.185 1330.04 577.898 1323.75 581.323C1317.53 584.67 1312.63 589.33 1309.05 595.305C1305.46 601.281 1303.67 608.172 1303.67 615.979V723.891H1260.41Z" fill="#121315"/>
<path d="M1133.45 727.596C1121.82 727.596 1111.34 725.525 1102.02 721.382C1092.78 717.159 1085.45 710.945 1080.04 702.739C1074.7 694.533 1072.03 684.415 1072.03 672.385C1072.03 662.029 1073.94 653.464 1077.76 646.692C1081.59 639.92 1086.81 634.503 1093.42 630.44C1100.03 626.377 1107.48 623.309 1115.77 621.238C1124.13 619.087 1132.78 617.533 1141.7 616.577C1152.45 615.462 1161.18 614.466 1167.87 613.59C1174.56 612.634 1179.42 611.2 1182.45 609.288C1185.56 607.296 1187.11 604.229 1187.11 600.086V599.369C1187.11 590.366 1184.44 583.395 1179.1 578.456C1173.77 573.516 1166.08 571.047 1156.04 571.047C1145.44 571.047 1137.04 573.357 1130.82 577.978C1124.69 582.599 1120.55 588.056 1118.4 594.35L1078 588.614C1081.19 577.46 1086.45 568.139 1093.78 560.65C1101.11 553.081 1110.07 547.425 1120.67 543.68C1131.26 539.856 1142.97 537.944 1155.8 537.944C1164.64 537.944 1173.45 538.98 1182.21 541.051C1190.97 543.123 1198.98 546.548 1206.23 551.328C1213.48 556.029 1219.3 562.442 1223.68 570.569C1228.14 578.695 1230.37 588.853 1230.37 601.042V723.891H1188.78V698.676H1187.35C1184.72 703.775 1181.02 708.555 1176.24 713.017C1171.53 717.398 1165.6 720.944 1158.43 723.652C1151.34 726.282 1143.01 727.596 1133.45 727.596ZM1144.69 695.808C1153.37 695.808 1160.9 694.095 1167.27 690.669C1173.65 687.164 1178.55 682.543 1181.97 676.807C1185.48 671.071 1187.23 664.817 1187.23 658.045V636.415C1185.88 637.53 1183.56 638.566 1180.3 639.522C1177.11 640.478 1173.53 641.315 1169.54 642.032C1165.56 642.749 1161.62 643.386 1157.71 643.944C1153.81 644.501 1150.42 644.979 1147.55 645.378C1141.1 646.254 1135.33 647.688 1130.23 649.68C1125.13 651.672 1121.1 654.46 1118.16 658.045C1115.21 661.55 1113.73 666.092 1113.73 671.668C1113.73 679.635 1116.64 685.65 1122.46 689.713C1128.27 693.777 1135.68 695.808 1144.69 695.808Z" fill="#121315"/>
<path d="M1049.61 479.148V723.891H1006.35V479.148H1049.61Z" fill="#121315"/>
<path d="M895.137 727.477C877.211 727.477 861.676 723.533 848.53 715.646C835.385 707.758 825.187 696.724 817.938 682.543C810.767 668.362 807.182 651.791 807.182 632.83C807.182 613.869 810.767 597.258 817.938 582.997C825.187 568.736 835.385 557.662 848.53 549.775C861.676 541.888 877.211 537.944 895.137 537.944C913.062 537.944 928.598 541.888 941.743 549.775C954.888 557.662 965.046 568.736 972.216 582.997C979.466 597.258 983.091 613.869 983.091 632.83C983.091 651.791 979.466 668.362 972.216 682.543C965.046 696.724 954.888 707.758 941.743 715.646C928.598 723.533 913.062 727.477 895.137 727.477ZM895.376 692.821C905.095 692.821 913.222 690.152 919.754 684.814C926.287 679.396 931.147 672.146 934.334 663.064C937.6 653.982 939.234 643.864 939.234 632.71C939.234 621.477 937.6 611.319 934.334 602.237C931.147 593.075 926.287 585.785 919.754 580.368C913.222 574.95 905.095 572.242 895.376 572.242C885.417 572.242 877.132 574.95 870.519 580.368C863.986 585.785 859.087 593.075 855.82 602.237C852.633 611.319 851.04 621.477 851.04 632.71C851.04 643.864 852.633 653.982 855.82 663.064C859.087 672.146 863.986 679.396 870.519 684.814C877.132 690.152 885.417 692.821 895.376 692.821Z" fill="#121315"/>
<path d="M744.908 546.429C743.792 535.992 739.092 527.866 730.806 522.05C722.601 516.234 711.925 513.326 698.78 513.326C689.538 513.326 681.611 514.72 674.998 517.509C668.386 520.297 663.327 524.081 659.821 528.862C656.316 533.642 654.523 539.099 654.444 545.234C654.444 550.332 655.599 554.754 657.909 558.498C660.299 562.243 663.526 565.43 667.589 568.059C671.652 570.608 676.154 572.759 681.093 574.512C686.032 576.265 691.012 577.738 696.031 578.933L718.976 584.67C728.217 586.821 737.1 589.729 745.625 593.393C754.229 597.058 761.917 601.679 768.689 607.256C775.541 612.833 780.958 619.565 784.942 627.452C788.925 635.339 790.917 644.581 790.917 655.177C790.917 669.517 787.252 682.145 779.922 693.059C772.593 703.894 761.997 712.379 748.134 718.514C734.352 724.568 717.661 727.596 698.063 727.596C679.022 727.596 662.49 724.648 648.469 718.753C634.526 712.857 623.612 704.253 615.725 692.94C607.917 681.627 603.695 667.844 603.057 651.592H646.676C647.313 660.116 649.942 667.207 654.563 672.863C659.184 678.52 665.199 682.742 672.608 685.531C680.097 688.319 688.462 689.713 697.704 689.713C707.344 689.713 715.789 688.279 723.039 685.411C730.368 682.463 736.104 678.4 740.247 673.222C744.39 667.964 746.501 661.829 746.581 654.818C746.501 648.445 744.629 643.187 740.964 639.044C737.299 634.821 732.161 631.316 725.548 628.527C719.015 625.659 711.367 623.11 702.604 620.879L674.759 613.709C654.603 608.531 638.669 600.683 626.958 590.167C615.326 579.571 609.51 565.509 609.51 547.982C609.51 533.562 613.414 520.934 621.222 510.099C629.109 499.265 639.824 490.859 653.368 484.884C666.912 478.829 682.248 475.802 699.377 475.802C716.745 475.802 731.962 478.829 745.027 484.884C758.173 490.859 768.49 499.185 775.979 509.86C783.468 520.456 787.332 532.646 787.571 546.429H744.908Z" fill="#121315"/>
</g>
<g filter="url(#filter1_dddi_15_2)">
<g clip-path="url(#clip0_15_2)">
<rect x="93" y="383" width="426.667" height="426.667" rx="213.333" fill="#121315"/>
<g filter="url(#filter2_f_15_2)">
<circle cx="416" cy="767" r="106" fill="#FF557E" fill-opacity="0.5"/>
</g>
<g filter="url(#filter3_f_15_2)">
<circle cx="468.5" cy="432.5" r="86.5" fill="#71FFF6" fill-opacity="0.45"/>
</g>
<g filter="url(#filter4_f_15_2)">
<circle cx="306.5" cy="902.5" r="181.5" fill="#F4FF71" fill-opacity="0.19"/>
</g>
<g filter="url(#filter5_dii_15_2)">
<path d="M125 596.5L231.426 590.591C268.739 588.514 298.515 558.721 300.592 521.426L306.5 415L312.427 521.426C314.486 558.721 344.279 588.515 381.574 590.591L488 596.5L381.574 602.409C344.279 604.486 314.485 634.261 312.427 671.574L306.5 778L300.592 671.574C298.515 634.262 268.74 604.485 231.426 602.409L125 596.5Z" fill="white"/>
</g>
</g>
</g>
<defs>
<filter id="filter0_d_15_2" x="601.057" y="466.676" width="1433.92" height="263.92" filterUnits="userSpaceOnUse" color-interpolation-filters="sRGB">
<feFlood flood-opacity="0" result="BackgroundImageFix"/>
<feColorMatrix in="SourceAlpha" type="matrix" values="0 0 0 0 0 0 0 0 0 0 0 0 0 0 0 0 0 0 127 0" result="hardAlpha"/>
<feOffset dy="1"/>
<feGaussianBlur stdDeviation="1"/>
<feComposite in2="hardAlpha" operator="out"/>
<feColorMatrix type="matrix" values="0 0 0 0 0 0 0 0 0 0 0 0 0 0 0 0 0 0 0.1 0"/>
<feBlend mode="normal" in2="BackgroundImageFix" result="effect1_dropShadow_15_2"/>
<feBlend mode="normal" in="SourceGraphic" in2="effect1_dropShadow_15_2" result="shape"/>
</filter>
<filter id="filter1_dddi_15_2" x="81" y="377" width="450.667" height="450.667" filterUnits="userSpaceOnUse" color-interpolation-filters="sRGB">
<feFlood flood-opacity="0" result="BackgroundImageFix"/>
<feColorMatrix in="SourceAlpha" type="matrix" values="0 0 0 0 0 0 0 0 0 0 0 0 0 0 0 0 0 0 127 0" result="hardAlpha"/>
<feOffset dy="6"/>
<feGaussianBlur stdDeviation="6"/>
<feColorMatrix type="matrix" values="0 0 0 0 0 0 0 0 0 0 0 0 0 0 0 0 0 0 0.1 0"/>
<feBlend mode="normal" in2="BackgroundImageFix" result="effect1_dropShadow_15_2"/>
<feColorMatrix in="SourceAlpha" type="matrix" values="0 0 0 0 0 0 0 0 0 0 0 0 0 0 0 0 0 0 127 0" result="hardAlpha"/>
<feOffset dy="4"/>
<feGaussianBlur stdDeviation="3"/>
<feColorMatrix type="matrix" values="0 0 0 0 0 0 0 0 0 0 0 0 0 0 0 0 0 0 0.1 0"/>
<feBlend mode="normal" in2="effect1_dropShadow_15_2" result="effect2_dropShadow_15_2"/>
<feColorMatrix in="SourceAlpha" type="matrix" values="0 0 0 0 0 0 0 0 0 0 0 0 0 0 0 0 0 0 127 0" result="hardAlpha"/>
<feOffset dy="1"/>
<feGaussianBlur stdDeviation="1"/>
<feColorMatrix type="matrix" values="0 0 0 0 0 0 0 0 0 0 0 0 0 0 0 0 0 0 0.1 0"/>
<feBlend mode="normal" in2="effect2_dropShadow_15_2" result="effect3_dropShadow_15_2"/>
<feBlend mode="normal" in="SourceGraphic" in2="effect3_dropShadow_15_2" result="shape"/>
<feColorMatrix in="SourceAlpha" type="matrix" values="0 0 0 0 0 0 0 0 0 0 0 0 0 0 0 0 0 0 127 0" result="hardAlpha"/>
<feOffset dy="-2"/>
<feGaussianBlur stdDeviation="1"/>
<feComposite in2="hardAlpha" operator="arithmetic" k2="-1" k3="1"/>
<feColorMatrix type="matrix" values="0 0 0 0 0 0 0 0 0 0 0 0 0 0 0 0 0 0 0.05 0"/>
<feBlend mode="normal" in2="shape" result="effect4_innerShadow_15_2"/>
</filter>
<filter id="filter2_f_15_2" x="50" y="401" width="732" height="732" filterUnits="userSpaceOnUse" color-interpolation-filters="sRGB">
<feFlood flood-opacity="0" result="BackgroundImageFix"/>
<feBlend mode="normal" in="SourceGraphic" in2="BackgroundImageFix" result="shape"/>
<feGaussianBlur stdDeviation="130" result="effect1_foregroundBlur_15_2"/>
</filter>
<filter id="filter3_f_15_2" x="141" y="105" width="655" height="655" filterUnits="userSpaceOnUse" color-interpolation-filters="sRGB">
<feFlood flood-opacity="0" result="BackgroundImageFix"/>
<feBlend mode="normal" in="SourceGraphic" in2="BackgroundImageFix" result="shape"/>
<feGaussianBlur stdDeviation="120.5" result="effect1_foregroundBlur_15_2"/>
</filter>
<filter id="filter4_f_15_2" x="-47" y="549" width="707" height="707" filterUnits="userSpaceOnUse" color-interpolation-filters="sRGB">
<feFlood flood-opacity="0" result="BackgroundImageFix"/>
<feBlend mode="normal" in="SourceGraphic" in2="BackgroundImageFix" result="shape"/>
<feGaussianBlur stdDeviation="86" result="effect1_foregroundBlur_15_2"/>
</filter>
<filter id="filter5_dii_15_2" x="121" y="415" width="371" height="371" filterUnits="userSpaceOnUse" color-interpolation-filters="sRGB">
<feFlood flood-opacity="0" result="BackgroundImageFix"/>
<feColorMatrix in="SourceAlpha" type="matrix" values="0 0 0 0 0 0 0 0 0 0 0 0 0 0 0 0 0 0 127 0" result="hardAlpha"/>
<feOffset dy="4"/>
<feGaussianBlur stdDeviation="2"/>
<feComposite in2="hardAlpha" operator="out"/>
<feColorMatrix type="matrix" values="0 0 0 0 0.176471 0 0 0 0 0.180392 0 0 0 0 0.172549 0 0 0 0.2 0"/>
<feBlend mode="normal" in2="BackgroundImageFix" result="effect1_dropShadow_15_2"/>
<feBlend mode="normal" in="SourceGraphic" in2="effect1_dropShadow_15_2" result="shape"/>
<feColorMatrix in="SourceAlpha" type="matrix" values="0 0 0 0 0 0 0 0 0 0 0 0 0 0 0 0 0 0 127 0" result="hardAlpha"/>
<feOffset dy="2"/>
<feGaussianBlur stdDeviation="2"/>
<feComposite in2="hardAlpha" operator="arithmetic" k2="-1" k3="1"/>
<feColorMatrix type="matrix" values="0 0 0 0 0 0 0 0 0 0 0 0 0 0 0 0 0 0 0.2 0"/>
<feBlend mode="normal" in2="shape" result="effect2_innerShadow_15_2"/>
<feColorMatrix in="SourceAlpha" type="matrix" values="0 0 0 0 0 0 0 0 0 0 0 0 0 0 0 0 0 0 127 0" result="hardAlpha"/>
<feOffset dy="4"/>
<feGaussianBlur stdDeviation="4"/>
<feComposite in2="hardAlpha" operator="arithmetic" k2="-1" k3="1"/>
<feColorMatrix type="matrix" values="0 0 0 0 0 0 0 0 0 0 0 0 0 0 0 0 0 0 0.1 0"/>
<feBlend mode="normal" in2="effect2_innerShadow_15_2" result="effect3_innerShadow_15_2"/>
</filter>
<clipPath id="clip0_15_2">
<rect x="93" y="383" width="426.667" height="426.667" rx="213.333" fill="white"/>
</clipPath>
</defs>
</svg>
